<svg xmlns="http://www.w3.org/2000/svg" xmlns:xlink="http://www.w3.org/1999/xlink" width="1080" zoomAndPan="magnify" viewBox="0 0 810 809.999993" height="1080" preserveAspectRatio="xMidYMid meet" version="1.0"><defs><g/></defs><rect x="-81" width="972" fill="#ffffff" y="-80.999999" height="971.999992" fill-opacity="1"/><rect x="-81" width="972" fill="#5658ff" y="-80.999999" height="971.999992" fill-opacity="1"/><g fill="#ffffff" fill-opacity="1"><g transform="translate(17.561599, 600.385229)"><g><path d="M 213.890625 -299.453125 C 241.316406 -299.453125 266.269531 -293.144531 288.75 -280.53125 C 311.238281 -267.914062 328.878906 -250.179688 341.671875 -227.328125 C 354.472656 -204.484375 360.875 -177.882812 360.875 -147.53125 C 360.875 -117.1875 354.472656 -90.585938 341.671875 -67.734375 C 328.878906 -44.878906 311.238281 -27.144531 288.75 -14.53125 C 266.269531 -1.914062 241.316406 4.390625 213.890625 4.390625 C 173.304688 4.390625 142.410156 -8.40625 121.203125 -34 L 121.203125 0 L 39.484375 0 L 39.484375 -406.953125 L 125.046875 -406.953125 L 125.046875 -263.8125 C 146.617188 -287.570312 176.234375 -299.453125 213.890625 -299.453125 Z M 199.09375 -65.8125 C 221.03125 -65.8125 239.035156 -73.210938 253.109375 -88.015625 C 267.179688 -102.828125 274.21875 -122.664062 274.21875 -147.53125 C 274.21875 -172.394531 267.179688 -192.226562 253.109375 -207.03125 C 239.035156 -221.84375 221.03125 -229.25 199.09375 -229.25 C 177.15625 -229.25 159.144531 -221.84375 145.0625 -207.03125 C 130.988281 -192.226562 123.953125 -172.394531 123.953125 -147.53125 C 123.953125 -122.664062 130.988281 -102.828125 145.0625 -88.015625 C 159.144531 -73.210938 177.15625 -65.8125 199.09375 -65.8125 Z M 199.09375 -65.8125 "/></g></g></g><g fill="#ffffff" fill-opacity="1"><g transform="translate(395.991328, 600.385229)"><g><path d="M 213.890625 -299.453125 C 241.316406 -299.453125 266.269531 -293.144531 288.75 -280.53125 C 311.238281 -267.914062 328.878906 -250.179688 341.671875 -227.328125 C 354.472656 -204.484375 360.875 -177.882812 360.875 -147.53125 C 360.875 -117.1875 354.472656 -90.585938 341.671875 -67.734375 C 328.878906 -44.878906 311.238281 -27.144531 288.75 -14.53125 C 266.269531 -1.914062 241.316406 4.390625 213.890625 4.390625 C 173.304688 4.390625 142.410156 -8.40625 121.203125 -34 L 121.203125 0 L 39.484375 0 L 39.484375 -406.953125 L 125.046875 -406.953125 L 125.046875 -263.8125 C 146.617188 -287.570312 176.234375 -299.453125 213.890625 -299.453125 Z M 199.09375 -65.8125 C 221.03125 -65.8125 239.035156 -73.210938 253.109375 -88.015625 C 267.179688 -102.828125 274.21875 -122.664062 274.21875 -147.53125 C 274.21875 -172.394531 267.179688 -192.226562 253.109375 -207.03125 C 239.035156 -221.84375 221.03125 -229.25 199.09375 -229.25 C 177.15625 -229.25 159.144531 -221.84375 145.0625 -207.03125 C 130.988281 -192.226562 123.953125 -172.394531 123.953125 -147.53125 C 123.953125 -122.664062 130.988281 -102.828125 145.0625 -88.015625 C 159.144531 -73.210938 177.15625 -65.8125 199.09375 -65.8125 Z M 199.09375 -65.8125 "/></g></g></g></svg>